<?xml version="1.0" encoding="UTF-8" standalone="no"?>
<!-- Created with Inkscape (http://www.inkscape.org/) -->

<svg
   width="210mm"
   height="297mm"
   viewBox="0 0 210 297"
   version="1.1"
   id="svg5"
   xml:space="preserve"
   inkscape:version="1.2.2 (732a01da63, 2022-12-09)"
   sodipodi:docname="Zeichnung.svg"
   inkscape:export-filename="Zeichnung.png"
   inkscape:export-xdpi="52.657845"
   inkscape:export-ydpi="52.657845"
   xmlns:inkscape="http://www.inkscape.org/namespaces/inkscape"
   xmlns:sodipodi="http://sodipodi.sourceforge.net/DTD/sodipodi-0.dtd"
   xmlns:xlink="http://www.w3.org/1999/xlink"
   xmlns="http://www.w3.org/2000/svg"
   xmlns:svg="http://www.w3.org/2000/svg"><sodipodi:namedview
     id="namedview7"
     pagecolor="#505050"
     bordercolor="#ffffff"
     borderopacity="1"
     inkscape:showpageshadow="0"
     inkscape:pageopacity="0"
     inkscape:pagecheckerboard="1"
     inkscape:deskcolor="#505050"
     inkscape:document-units="mm"
     showgrid="false"
     inkscape:zoom="5.9366442"
     inkscape:cx="426.41936"
     inkscape:cy="549.88978"
     inkscape:window-width="1920"
     inkscape:window-height="991"
     inkscape:window-x="896"
     inkscape:window-y="1791"
     inkscape:window-maximized="1"
     inkscape:current-layer="layer1" /><defs
     id="defs2"><linearGradient
       inkscape:collect="always"
       id="linearGradient4530"><stop
         style="stop-color:#0045fd;stop-opacity:1;"
         offset="0"
         id="stop4526" /><stop
         style="stop-color:#ff1a1a;stop-opacity:1;"
         offset="0.75294119"
         id="stop4534" /></linearGradient><linearGradient
       inkscape:collect="always"
       xlink:href="#linearGradient4530"
       id="linearGradient4532"
       x1="393.45769"
       y1="536.25261"
       x2="458.7369"
       y2="536.25261"
       gradientUnits="userSpaceOnUse" /></defs><g
     inkscape:label="Ebene 1"
     inkscape:groupmode="layer"
     id="layer1"><path
       style="opacity:1;mix-blend-mode:normal;fill:url(#linearGradient4532);fill-opacity:1;stroke:#2b2b2b;stroke-width:0.75590552;stroke-dasharray:none;stroke-opacity:1;stroke-dashoffset:0;stroke-linejoin:miter;stroke-linecap:round;stroke-miterlimit:3.8;paint-order:markers fill stroke;marker-end:"
       d="m 439.2212,581.5518 c -1.15806,-0.0832 -2.40877,-0.22493 -2.77935,-0.31504 -0.37058,-0.0901 -1.38694,-0.28664 -2.25858,-0.4367 -10.80314,-1.85992 -21.40582,-9.09743 -27.44045,-18.73116 -1.69615,-2.70776 -3.47477,-6.54615 -4.57027,-9.86299 -0.29834,-0.90329 -0.55514,-1.65331 -0.57066,-1.6667 -0.0155,-0.0134 -1.58213,-0.0728 -3.48135,-0.13197 -3.7608,-0.1172 -4.02879,-0.18409 -4.41676,-1.10235 -0.32266,-0.76365 -0.30268,-8.22013 0.0241,-8.9951 0.36555,-0.86693 0.9597,-1.03206 3.71348,-1.03206 h 2.36364 v -3.53735 -3.53736 l -2.06345,-0.004 c -2.4438,-0.005 -3.22859,-0.15814 -3.81655,-0.74592 l -0.4367,-0.43657 v -4.24955 c 0,-2.33725 0.0589,-4.46035 0.13086,-4.71799 0.072,-0.25765 0.37517,-0.61742 0.67378,-0.79949 0.49308,-0.30064 0.86044,-0.33109 4.00124,-0.33166 l 3.45831,-6.3e-4 0.21832,-0.54745 c 0.12008,-0.3011 0.39434,-1.04015 0.60947,-1.64234 0.69998,-1.95939 1.52236,-3.74162 2.82408,-6.12023 2.30944,-4.22003 5.80468,-8.47087 9.47021,-11.51751 0.83726,-0.6959 1.68547,-1.4016 1.88491,-1.56823 1.13254,-0.94623 7.32726,-4.71327 7.75075,-4.71327 0.0413,0 0.51265,-0.21707 1.04739,-0.48239 1.37834,-0.68386 5.7444,-2.14803 7.61674,-2.55429 4.02689,-0.87374 4.48345,-0.91277 10.59487,-0.9057 6.03604,0.007 7.22655,0.10377 10.78051,0.87648 1.6448,0.35762 2.02791,0.53296 2.51361,1.15043 0.56133,0.71361 0.52156,0.98221 -0.99436,6.71616 -1.48912,5.63258 -1.72068,6.18619 -2.67525,6.39585 -0.26578,0.0584 -1.84896,-0.12876 -3.56503,-0.4214 -2.74605,-0.46828 -3.46196,-0.52687 -6.48329,-0.53059 -3.02567,-0.004 -3.63371,0.0446 -5.57107,0.44249 -7.20158,1.47918 -13.01687,5.33522 -16.90711,11.21085 -1.03955,1.57009 -2.07993,3.66418 -1.96684,3.95889 0.085,0.22148 1.96822,0.25225 15.43898,0.25225 16.9634,0 16.0288,-0.0614 16.57449,1.08856 0.2688,0.56645 0.26591,0.69373 -0.0547,2.40777 -0.62484,3.34095 -1.19298,5.8921 -1.44821,6.50294 -0.53887,1.28971 0.75627,1.19602 -17.35941,1.25565 l -16.19653,0.0533 -0.0775,1.63115 c -0.0426,0.89712 -0.0344,2.46494 0.0182,3.48404 l 0.0958,1.8529 15.25178,0.0842 c 16.89843,0.0933 15.85054,0.0174 16.33319,1.18267 0.19092,0.4609 0.17244,0.7951 -0.13339,2.41339 -0.6286,3.32617 -1.21469,5.85177 -1.47459,6.35436 -0.58907,1.13913 0.19574,1.07279 -13.92049,1.17665 -7.01971,0.0516 -12.81627,0.14707 -12.88124,0.21205 -0.21394,0.21394 2.09234,4.53003 3.16562,5.92431 4.34669,5.64666 10.40909,9.34276 16.88643,10.29524 1.47459,0.21684 2.65628,0.25619 5.57684,0.18573 3.87379,-0.0935 4.79019,-0.19996 7.60295,-0.88355 3.52145,-0.85581 3.93505,-0.55547 4.76369,3.45931 0.18165,0.88012 0.57131,2.66143 0.86591,3.95846 1.05312,4.63663 1.05524,5.04995 0.0294,5.7095 -1.01397,0.65192 -4.67707,1.53818 -8.79813,2.12864 -1.64365,0.2355 -7.54791,0.32896 -9.93828,0.15731 z"
       id="path4272"
       transform="matrix(0.26458333,0,0,0.26458333,-3.4762908,4.1893757)"
       inkscape:export-filename="Zeichnung.png"
       inkscape:export-xdpi="290.88058"
       inkscape:export-ydpi="290.88058" /></g></svg>
